<?xml version="1.0" encoding="UTF-8"?>
<svg width="512px" height="512px" viewBox="0 0 512 512" version="1.1" xmlns="http://www.w3.org/2000/svg" xmlns:xlink="http://www.w3.org/1999/xlink">

    <g id="favicon" stroke="none" stroke-width="1" fill="none" fill-rule="evenodd">
        <path d="M146.141456,-7.25467311e-15 L365.858544,7.25467311e-15 C416.675112,-4.215174e-15 435.102427,5.29105984 453.680205,15.2265641 C472.257983,25.1620684 486.837932,39.7420171 496.773436,58.3197949 C506.70894,76.8975727 512,95.3248882 512,146.141456 L512,365.858544 C512,416.675112 506.70894,435.102427 496.773436,453.680205 C486.837932,472.257983 472.257983,486.837932 453.680205,496.773436 C435.102427,506.70894 416.675112,512 365.858544,512 L146.141456,512 C95.3248882,512 76.8975727,506.70894 58.3197949,496.773436 C39.7420171,486.837932 25.1620684,472.257983 15.2265641,453.680205 C5.29105984,435.102427 0,416.675112 0,365.858544 L7.25467311e-15,146.141456 C-4.215174e-15,95.3248882 5.29105984,76.8975727 15.2265641,58.3197949 C25.1620684,39.7420171 39.7420171,25.1620684 58.3197949,15.2265641 C76.8975727,5.29105984 95.3248882,4.215174e-15 146.141456,-7.25467311e-15 Z" id="bg" fill="none"></path>
        <g transform="translate(73, 69)" fill="#696969" fill-rule="nonzero">
            <path d="M183,324 C169.690909,313.476923 155.272727,305.307692 139.745455,299.492308 C124.218182,293.676923 108.136364,290.769231 91.5,290.769231 C79.8545455,290.769231 68.4170455,292.292308 57.1875,295.338462 C45.9579545,298.384615 35.2136364,302.676923 24.9545455,308.215385 C19.1318182,311.261538 13.5170455,311.123077 8.11022727,307.8 C2.70340909,304.476923 0,299.630769 0,293.261538 L0,93.0461538 C0,90 0.7625,87.0923077 2.2875,84.3230769 C3.8125,81.5538462 6.1,79.4769231 9.15,78.0923077 C21.9045455,71.4461538 35.2136364,66.4615385 49.0772727,63.1384615 C62.9409091,59.8153846 77.0818182,58.1538462 91.5,58.1538462 C107.581818,58.1538462 123.317045,60.2307692 138.705682,64.3846154 C154.094318,68.5384615 168.859091,74.7692308 183,83.0769231 L183,284.123077 C197.140909,275.261538 211.975,268.615385 227.502273,264.184615 C243.029545,259.753846 258.695455,257.538462 274.5,257.538462 C284.481818,257.538462 294.255682,258.369231 303.821591,260.030769 C313.3875,261.692308 323.022727,264.184615 332.727273,267.507692 L332.727273,68.1230769 C336.886364,69.5076923 340.976136,70.9615385 344.996591,72.4846154 C349.017045,74.0076923 352.968182,75.8769231 356.85,78.0923077 C359.9,79.4769231 362.1875,81.5538462 363.7125,84.3230769 C365.2375,87.0923077 366,90 366,93.0461538 L366,293.261538 C366,299.630769 363.296591,304.476923 357.889773,307.8 C352.482955,311.123077 346.868182,311.261538 341.045455,308.215385 C330.786364,302.676923 320.042045,298.384615 308.8125,295.338462 C297.582955,292.292308 286.145455,290.769231 274.5,290.769231 C257.863636,290.769231 241.781818,293.676923 226.254545,299.492308 C210.727273,305.307692 196.309091,313.476923 183,324 Z M216.272727,240.923077 L216.272727,83.0769231 L299.454545,0 L299.454545,166.153846 L216.272727,240.923077 Z M149.727273,267.923077 L149.727273,103.430769 C140.577273,99.5538462 131.080682,96.5769231 121.2375,94.5 C111.394318,92.4230769 101.481818,91.3846154 91.5,91.3846154 C81.2409091,91.3846154 71.2590909,92.3538462 61.5545455,94.2923077 C51.85,96.2307692 42.4227273,99.1384615 33.2727273,103.015385 L33.2727273,267.923077 C42.9772727,264.323077 52.6125,261.692308 62.1784091,260.030769 C71.7443182,258.369231 81.5181818,257.538462 91.5,257.538462 C101.481818,257.538462 111.255682,258.369231 120.821591,260.030769 C130.3875,261.692308 140.022727,264.323077 149.727273,267.923077 Z M150.351136,267.923077 L150.351136,103.430769 L150.351136,267.923077 Z"></path>
        </g>
    </g>
</svg>