<?xml version="1.0" encoding="UTF-8"?>
<svg width="512px" height="512px" viewBox="0 0 512 512" version="1.1" xmlns="http://www.w3.org/2000/svg" xmlns:xlink="http://www.w3.org/1999/xlink">
    <title>favicon</title>
    <defs>
        <linearGradient x1="50%" y1="0%" x2="50%" y2="99.4298986%" id="linearGradient-1">
            <stop stop-color="#1B1B1B" offset="0%"></stop>
            <stop stop-color="#282828" offset="99.9480988%"></stop>
        </linearGradient>
    </defs>
    <g id="favicon" stroke="none" stroke-width="1" fill="none" fill-rule="evenodd">
        <path d="M146.141456,-7.25467311e-15 L365.858544,7.25467311e-15 C416.675112,-4.215174e-15 435.102427,5.29105984 453.680205,15.2265641 C472.257983,25.1620684 486.837932,39.7420171 496.773436,58.3197949 C506.70894,76.8975727 512,95.3248882 512,146.141456 L512,365.858544 C512,416.675112 506.70894,435.102427 496.773436,453.680205 C486.837932,472.257983 472.257983,486.837932 453.680205,496.773436 C435.102427,506.70894 416.675112,512 365.858544,512 L146.141456,512 C95.3248882,512 76.8975727,506.70894 58.3197949,496.773436 C39.7420171,486.837932 25.1620684,472.257983 15.2265641,453.680205 C5.29105984,435.102427 0,416.675112 0,365.858544 L7.25467311e-15,146.141456 C-4.215174e-15,95.3248882 5.29105984,76.8975727 15.2265641,58.3197949 C25.1620684,39.7420171 39.7420171,25.1620684 58.3197949,15.2265641 C76.8975727,5.29105984 95.3248882,4.215174e-15 146.141456,-7.25467311e-15 Z" id="bg" fill="none"></path>
        <path d="M452.941368,256 L368.559112,374.646428 C364.231816,380.603572 359.072349,385.485119 353.080709,389.291072 C347.08907,393.097024 340.431693,395 333.108578,395 L123.401194,395 C115.16269,395 108.110031,392.083482 102.243217,386.250446 C96.3764036,380.41741 93.4429967,373.405358 93.4429967,365.214286 L93.4429967,146.785714 C93.4429967,138.594642 96.3764036,131.58259 102.243217,125.749554 C108.110031,119.916518 115.16269,117 123.401194,117 L333.108578,117 C340.431693,117 347.08907,118.902976 353.080709,122.708928 C359.072349,126.514881 364.231816,131.396428 368.559112,137.353572 L452.941368,256 Z" id="goldlabel" fill="#C09F52" fill-rule="nonzero"></path>
    </g>
</svg>